<mxfile host="Electron" modified="2024-01-25T17:05:12.629Z" agent="Mozilla/5.0 (X11; Linux x86_64) AppleWebKit/537.36 (KHTML, like Gecko) draw.io/22.1.21 Chrome/120.0.6099.109 Electron/28.1.0 Safari/537.36" etag="fNkCfcH8E3P3w1Uu0s7V" version="22.1.21" type="device">
  <diagram name="Page-1" id="h-33Ypo1zXG0YeIfGgGF">
    <mxGraphModel dx="830" dy="492" grid="1" gridSize="10" guides="1" tooltips="1" connect="1" arrows="1" fold="1" page="1" pageScale="1" pageWidth="850" pageHeight="1100" math="0" shadow="0">
      <root>
        <mxCell id="0" />
        <mxCell id="1" parent="0" />
        <mxCell id="BdMwT2BXw6ccnMAw5Xdu-15" style="edgeStyle=orthogonalEdgeStyle;rounded=0;orthogonalLoop=1;jettySize=auto;html=1;exitX=1;exitY=0.5;exitDx=0;exitDy=0;endArrow=none;endFill=0;entryX=0;entryY=0.5;entryDx=0;entryDy=0;" parent="1" source="BdMwT2BXw6ccnMAw5Xdu-12" target="BdMwT2BXw6ccnMAw5Xdu-2" edge="1">
          <mxGeometry relative="1" as="geometry">
            <mxPoint x="370" y="490" as="targetPoint" />
          </mxGeometry>
        </mxCell>
        <mxCell id="BdMwT2BXw6ccnMAw5Xdu-12" value="RX_VLD" style="shape=step;perimeter=stepPerimeter;whiteSpace=wrap;html=1;fixedSize=1;size=10;" parent="1" vertex="1">
          <mxGeometry x="160" y="470" width="80" height="20" as="geometry" />
        </mxCell>
        <mxCell id="BdMwT2BXw6ccnMAw5Xdu-13" value="TX_VLD" style="shape=step;perimeter=stepPerimeter;whiteSpace=wrap;html=1;fixedSize=1;size=10;" parent="1" vertex="1">
          <mxGeometry x="540" y="470" width="80" height="20" as="geometry" />
        </mxCell>
        <mxCell id="BdMwT2BXw6ccnMAw5Xdu-14" style="edgeStyle=orthogonalEdgeStyle;rounded=0;orthogonalLoop=1;jettySize=auto;html=1;exitX=1;exitY=0.5;exitDx=0;exitDy=0;endArrow=none;endFill=0;" parent="1" source="BdMwT2BXw6ccnMAw5Xdu-3" target="BdMwT2BXw6ccnMAw5Xdu-13" edge="1">
          <mxGeometry relative="1" as="geometry" />
        </mxCell>
        <mxCell id="BdMwT2BXw6ccnMAw5Xdu-19" value="" style="group" parent="1" vertex="1" connectable="0">
          <mxGeometry x="440" y="470" width="40" height="60" as="geometry" />
        </mxCell>
        <mxCell id="BdMwT2BXw6ccnMAw5Xdu-17" value="" style="rounded=0;whiteSpace=wrap;html=1;" parent="BdMwT2BXw6ccnMAw5Xdu-19" vertex="1">
          <mxGeometry width="40" height="60" as="geometry" />
        </mxCell>
        <mxCell id="BdMwT2BXw6ccnMAw5Xdu-2" value="D" style="text;html=1;strokeColor=none;fillColor=none;align=left;verticalAlign=middle;whiteSpace=wrap;rounded=0;" parent="BdMwT2BXw6ccnMAw5Xdu-19" vertex="1">
          <mxGeometry width="20" height="20" as="geometry" />
        </mxCell>
        <mxCell id="BdMwT2BXw6ccnMAw5Xdu-3" value="Q" style="text;html=1;strokeColor=none;fillColor=none;align=right;verticalAlign=middle;whiteSpace=wrap;rounded=0;" parent="BdMwT2BXw6ccnMAw5Xdu-19" vertex="1">
          <mxGeometry x="20" width="20" height="20" as="geometry" />
        </mxCell>
        <mxCell id="BdMwT2BXw6ccnMAw5Xdu-4" value="" style="endArrow=none;html=1;rounded=0;" parent="BdMwT2BXw6ccnMAw5Xdu-19" edge="1">
          <mxGeometry width="50" height="50" relative="1" as="geometry">
            <mxPoint y="60" as="sourcePoint" />
            <mxPoint x="20" y="60" as="targetPoint" />
            <Array as="points">
              <mxPoint x="10" y="50" />
            </Array>
          </mxGeometry>
        </mxCell>
        <mxCell id="BdMwT2BXw6ccnMAw5Xdu-5" value="R" style="text;html=1;strokeColor=none;fillColor=none;align=center;verticalAlign=middle;whiteSpace=wrap;rounded=0;" parent="BdMwT2BXw6ccnMAw5Xdu-19" vertex="1">
          <mxGeometry x="20" y="40" width="20" height="20" as="geometry" />
        </mxCell>
        <mxCell id="BdMwT2BXw6ccnMAw5Xdu-18" value="EN" style="text;html=1;strokeColor=none;fillColor=none;align=left;verticalAlign=middle;whiteSpace=wrap;rounded=0;" parent="BdMwT2BXw6ccnMAw5Xdu-19" vertex="1">
          <mxGeometry y="20" width="20" height="20" as="geometry" />
        </mxCell>
        <mxCell id="BdMwT2BXw6ccnMAw5Xdu-20" value="" style="group" parent="1" vertex="1" connectable="0">
          <mxGeometry x="440" y="540" width="40" height="60" as="geometry" />
        </mxCell>
        <mxCell id="BdMwT2BXw6ccnMAw5Xdu-21" value="" style="rounded=0;whiteSpace=wrap;html=1;" parent="BdMwT2BXw6ccnMAw5Xdu-20" vertex="1">
          <mxGeometry width="40" height="60" as="geometry" />
        </mxCell>
        <mxCell id="BdMwT2BXw6ccnMAw5Xdu-22" value="D" style="text;html=1;strokeColor=none;fillColor=none;align=left;verticalAlign=middle;whiteSpace=wrap;rounded=0;" parent="BdMwT2BXw6ccnMAw5Xdu-20" vertex="1">
          <mxGeometry width="20" height="20" as="geometry" />
        </mxCell>
        <mxCell id="BdMwT2BXw6ccnMAw5Xdu-23" value="Q" style="text;html=1;strokeColor=none;fillColor=none;align=right;verticalAlign=middle;whiteSpace=wrap;rounded=0;" parent="BdMwT2BXw6ccnMAw5Xdu-20" vertex="1">
          <mxGeometry x="20" width="20" height="20" as="geometry" />
        </mxCell>
        <mxCell id="BdMwT2BXw6ccnMAw5Xdu-24" value="" style="endArrow=none;html=1;rounded=0;" parent="BdMwT2BXw6ccnMAw5Xdu-20" edge="1">
          <mxGeometry width="50" height="50" relative="1" as="geometry">
            <mxPoint y="60" as="sourcePoint" />
            <mxPoint x="20" y="60" as="targetPoint" />
            <Array as="points">
              <mxPoint x="10" y="50" />
            </Array>
          </mxGeometry>
        </mxCell>
        <mxCell id="BdMwT2BXw6ccnMAw5Xdu-26" value="EN" style="text;html=1;strokeColor=none;fillColor=none;align=left;verticalAlign=middle;whiteSpace=wrap;rounded=0;" parent="BdMwT2BXw6ccnMAw5Xdu-20" vertex="1">
          <mxGeometry y="20" width="20" height="20" as="geometry" />
        </mxCell>
        <mxCell id="BdMwT2BXw6ccnMAw5Xdu-27" style="edgeStyle=orthogonalEdgeStyle;rounded=0;orthogonalLoop=1;jettySize=auto;html=1;exitX=1;exitY=0.5;exitDx=0;exitDy=0;entryX=0;entryY=0.5;entryDx=0;entryDy=0;endArrow=none;endFill=0;" parent="1" source="BdMwT2BXw6ccnMAw5Xdu-28" target="BdMwT2BXw6ccnMAw5Xdu-22" edge="1">
          <mxGeometry relative="1" as="geometry">
            <mxPoint x="380" y="550" as="targetPoint" />
          </mxGeometry>
        </mxCell>
        <mxCell id="BdMwT2BXw6ccnMAw5Xdu-28" value="RX_DAT" style="shape=step;perimeter=stepPerimeter;whiteSpace=wrap;html=1;fixedSize=1;size=10;" parent="1" vertex="1">
          <mxGeometry x="160" y="540" width="80" height="20" as="geometry" />
        </mxCell>
        <mxCell id="BdMwT2BXw6ccnMAw5Xdu-29" style="edgeStyle=orthogonalEdgeStyle;rounded=0;orthogonalLoop=1;jettySize=auto;html=1;exitX=1;exitY=0.5;exitDx=0;exitDy=0;entryX=0;entryY=0.75;entryDx=0;entryDy=0;endArrow=none;endFill=0;" parent="1" source="BdMwT2BXw6ccnMAw5Xdu-30" target="BdMwT2BXw6ccnMAw5Xdu-31" edge="1">
          <mxGeometry relative="1" as="geometry">
            <mxPoint x="380" y="650" as="targetPoint" />
          </mxGeometry>
        </mxCell>
        <mxCell id="BdMwT2BXw6ccnMAw5Xdu-30" value="RX_RDY" style="shape=step;perimeter=stepPerimeter;whiteSpace=wrap;html=1;fixedSize=1;size=10;flipH=1;" parent="1" vertex="1">
          <mxGeometry x="160" y="630" width="80" height="20" as="geometry" />
        </mxCell>
        <mxCell id="BdMwT2BXw6ccnMAw5Xdu-33" value="" style="group" parent="1" vertex="1" connectable="0">
          <mxGeometry x="320" y="610" width="50" height="40" as="geometry" />
        </mxCell>
        <mxCell id="BdMwT2BXw6ccnMAw5Xdu-31" value="OR" style="whiteSpace=wrap;html=1;aspect=fixed;" parent="BdMwT2BXw6ccnMAw5Xdu-33" vertex="1">
          <mxGeometry width="40" height="40" as="geometry" />
        </mxCell>
        <mxCell id="BdMwT2BXw6ccnMAw5Xdu-32" value="" style="ellipse;whiteSpace=wrap;html=1;" parent="BdMwT2BXw6ccnMAw5Xdu-33" vertex="1">
          <mxGeometry x="40" y="5" width="10" height="10" as="geometry" />
        </mxCell>
        <mxCell id="BdMwT2BXw6ccnMAw5Xdu-34" value="TX_DAT" style="shape=step;perimeter=stepPerimeter;whiteSpace=wrap;html=1;fixedSize=1;size=10;" parent="1" vertex="1">
          <mxGeometry x="540" y="540" width="80" height="20" as="geometry" />
        </mxCell>
        <mxCell id="BdMwT2BXw6ccnMAw5Xdu-35" style="edgeStyle=orthogonalEdgeStyle;rounded=0;orthogonalLoop=1;jettySize=auto;html=1;exitX=1;exitY=0.5;exitDx=0;exitDy=0;endArrow=none;endFill=0;" parent="1" source="BdMwT2BXw6ccnMAw5Xdu-23" target="BdMwT2BXw6ccnMAw5Xdu-34" edge="1">
          <mxGeometry relative="1" as="geometry">
            <mxPoint x="460" y="550" as="sourcePoint" />
          </mxGeometry>
        </mxCell>
        <mxCell id="BdMwT2BXw6ccnMAw5Xdu-37" value="TX_RDY" style="shape=step;perimeter=stepPerimeter;whiteSpace=wrap;html=1;fixedSize=1;size=10;flipH=1;" parent="1" vertex="1">
          <mxGeometry x="540" y="630" width="80" height="20" as="geometry" />
        </mxCell>
        <mxCell id="BdMwT2BXw6ccnMAw5Xdu-38" style="edgeStyle=orthogonalEdgeStyle;rounded=0;orthogonalLoop=1;jettySize=auto;html=1;endArrow=none;endFill=0;exitX=1;exitY=0.75;exitDx=0;exitDy=0;entryX=0;entryY=0.5;entryDx=0;entryDy=0;" parent="1" source="BdMwT2BXw6ccnMAw5Xdu-31" target="BdMwT2BXw6ccnMAw5Xdu-37" edge="1">
          <mxGeometry relative="1" as="geometry">
            <mxPoint x="470" y="640" as="targetPoint" />
            <mxPoint x="440" y="640" as="sourcePoint" />
          </mxGeometry>
        </mxCell>
        <mxCell id="BdMwT2BXw6ccnMAw5Xdu-39" style="edgeStyle=orthogonalEdgeStyle;rounded=0;orthogonalLoop=1;jettySize=auto;html=1;endArrow=oval;endFill=1;exitX=1;exitY=0.5;exitDx=0;exitDy=0;startArrow=none;startFill=0;" parent="1" source="BdMwT2BXw6ccnMAw5Xdu-32" edge="1">
          <mxGeometry relative="1" as="geometry">
            <mxPoint x="500" y="480" as="targetPoint" />
            <mxPoint x="440" y="660" as="sourcePoint" />
          </mxGeometry>
        </mxCell>
        <mxCell id="BdMwT2BXw6ccnMAw5Xdu-40" value="AND" style="whiteSpace=wrap;html=1;aspect=fixed;" parent="1" vertex="1">
          <mxGeometry x="320" y="560" width="40" height="40" as="geometry" />
        </mxCell>
        <mxCell id="BdMwT2BXw6ccnMAw5Xdu-41" style="edgeStyle=orthogonalEdgeStyle;rounded=0;orthogonalLoop=1;jettySize=auto;html=1;endArrow=oval;endFill=1;exitX=0;exitY=0.5;exitDx=0;exitDy=0;startArrow=none;startFill=0;" parent="1" source="BdMwT2BXw6ccnMAw5Xdu-18" edge="1">
          <mxGeometry relative="1" as="geometry">
            <mxPoint x="300" y="640" as="targetPoint" />
            <mxPoint x="380" y="640" as="sourcePoint" />
          </mxGeometry>
        </mxCell>
        <mxCell id="BdMwT2BXw6ccnMAw5Xdu-42" style="edgeStyle=orthogonalEdgeStyle;rounded=0;orthogonalLoop=1;jettySize=auto;html=1;endArrow=oval;endFill=1;exitX=0;exitY=0.75;exitDx=0;exitDy=0;startArrow=none;startFill=0;" parent="1" source="BdMwT2BXw6ccnMAw5Xdu-40" edge="1">
          <mxGeometry relative="1" as="geometry">
            <mxPoint x="300" y="590" as="targetPoint" />
            <mxPoint x="390" y="650" as="sourcePoint" />
          </mxGeometry>
        </mxCell>
        <mxCell id="BdMwT2BXw6ccnMAw5Xdu-43" style="edgeStyle=orthogonalEdgeStyle;rounded=0;orthogonalLoop=1;jettySize=auto;html=1;endArrow=oval;endFill=1;exitX=0;exitY=0.25;exitDx=0;exitDy=0;startArrow=none;startFill=0;" parent="1" source="BdMwT2BXw6ccnMAw5Xdu-40" edge="1">
          <mxGeometry relative="1" as="geometry">
            <mxPoint x="280" y="480" as="targetPoint" />
            <mxPoint x="400" y="660" as="sourcePoint" />
          </mxGeometry>
        </mxCell>
        <mxCell id="BdMwT2BXw6ccnMAw5Xdu-44" style="edgeStyle=orthogonalEdgeStyle;rounded=0;orthogonalLoop=1;jettySize=auto;html=1;exitX=1;exitY=0.25;exitDx=0;exitDy=0;endArrow=none;endFill=0;entryX=0;entryY=0.5;entryDx=0;entryDy=0;" parent="1" source="BdMwT2BXw6ccnMAw5Xdu-40" target="BdMwT2BXw6ccnMAw5Xdu-26" edge="1">
          <mxGeometry relative="1" as="geometry">
            <mxPoint x="250" y="460" as="sourcePoint" />
            <mxPoint x="410" y="460" as="targetPoint" />
          </mxGeometry>
        </mxCell>
        <mxCell id="V12DswPflvRYjTC0FYzu-1" value="RX_TRN" style="edgeLabel;html=1;align=center;verticalAlign=middle;resizable=0;points=[];" vertex="1" connectable="0" parent="BdMwT2BXw6ccnMAw5Xdu-44">
          <mxGeometry x="-0.37" y="-1" relative="1" as="geometry">
            <mxPoint x="15" y="9" as="offset" />
          </mxGeometry>
        </mxCell>
      </root>
    </mxGraphModel>
  </diagram>
</mxfile>
